<svg id="Component_2_1" data-name="Component 2 – 1" xmlns="http://www.w3.org/2000/svg" width="43.046" height="43.041" viewBox="0 0 43.046 43.041">
  <path id="_8546741_hubspot_icon" data-name="8546741_hubspot_icon" d="M38.3,11.441a7.031,7.031,0,0,0-.8,9.332l-2.676,2.693a2.209,2.209,0,0,0-.757-.135,2.183,2.183,0,1,0,2.184,2.184,2.045,2.045,0,0,0-.1-.654l2.7-2.714A7.039,7.039,0,1,0,44.205,9.6V6.272a2.47,2.47,0,0,0,1.525-2.32,2.534,2.534,0,1,0-5.066,0,2.47,2.47,0,0,0,1.525,2.32V9.581a7,7,0,0,0-2.309.735c-1.492-1.13-6.353-4.634-9.132-6.748a2.827,2.827,0,0,0,.108-.746,2.862,2.862,0,1,0-1.384,2.417Zm4.839,8.846a3.731,3.731,0,1,1,3.731-3.731A3.731,3.731,0,0,1,43.135,20.287Z" transform="translate(-17.45 8.109)" fill="#666"/>
  <g id="_2959747_employment_business_linkedin_work_icon" data-name="2959747_employment_business_linkedin_work_icon">
    <path id="Path_8425" data-name="Path 8425" d="M53.637,16.8a.607.607,0,0,1,.607.607V53.641a.607.607,0,0,1-.607.607H17.4a.607.607,0,0,1-.607-.607V17.4A.607.607,0,0,1,17.4,16.8H53.641m0-2.8H17.4A3.4,3.4,0,0,0,14,17.4V53.641a3.4,3.4,0,0,0,3.4,3.4H53.641a3.4,3.4,0,0,0,3.4-3.4V17.4A3.4,3.4,0,0,0,53.637,14Z" transform="translate(-14 -14)" fill="#666"/>
  </g>
</svg>
