<?xml version="1.0" encoding="utf-8"?>
<!-- Svg Vector Icons : http://www.onlinewebfonts.com/icon -->
<!DOCTYPE svg PUBLIC "-//W3C//DTD SVG 1.1//EN" "http://www.w3.org/Graphics/SVG/1.1/DTD/svg11.dtd">
<svg version="1.1" xmlns="http://www.w3.org/2000/svg" xmlns:xlink="http://www.w3.org/1999/xlink" x="0px" y="0px" viewBox="0 0 1000 1000" enable-background="new 0 0 1000 1000" xml:space="preserve">
<metadata> Svg Vector Icons : http://www.onlinewebfonts.com/icon </metadata>
<g><g transform="translate(0.000000,512.000000) scale(0.100000,-0.100000)"><path d="M3264.4,4974l-53.6-46l-5.7-545.7l-5.8-543.8l49.8-61.3l51.7-59.4h802.3h804.3l46,47.9l47.9,46v547.7v549.6l-55.5,55.5l-55.5,55.5h-787h-785.1L3264.4,4974z"/><path d="M2113.6,4478.1c-42.1-44.1-42.1-55.5-42.1-591.7c0-302.5,5.7-563,11.5-580.2c34.5-88.1,0-86.2,2035.5-86.2h1914.9l53.6,46l53.6,46v555.3v555.3l-46,49.8l-46,49.8h-396.4c-526.6,0-480.6,49.8-484.5-530.4l-3.8-436.6l-1057-5.7l-1058.9-3.8v421.3c0,440.4-11.5,515.1-86.2,543.8c-17.2,5.7-206.8,11.5-419.4,11.5C2161.5,4522.1,2153.8,4522.1,2113.6,4478.1z"/><path d="M652.5,3987.9l-55.5-55.5v-4140v-4140l55.5-55.5l55.5-55.5H3050h2340l-68.9,82.4c-396.4,465.3-610.9,1005.3-637.7,1602.8c-13.4,281.5,19.1,589.8,86.2,804.3c19.2,61.3,30.6,118.7,24.9,124.5c-5.8,5.7-710.4,9.6-1566.4,9.6c-1738.7,0-1623.8-9.6-1646.8,135.9c-9.6,55.5-1.9,78.5,36.4,124.5l47.9,55.5l1591.3,5.7c1041.7,1.9,1604.7-1.9,1627.7-15.3c32.6-17.2,46-1.9,113,120.6c78.5,139.8,220.2,344.7,331.3,476.8l59.4,72.8H3532.5c-1960.9,1.9-1888.1-1.9-1936,90c-36.4,67-26.8,120.6,32.5,180l57.4,55.5h2039.4l2037.5-1.9l103.4,65.1c172.3,111.1,436.6,235.5,633.8,298.7c289.2,91.9,486.4,118.7,817.7,113l287.2-5.7V1937c-1.9,1543.4-5.7,2008.7-24.9,2031.7c-53.6,68.9-97.7,74.7-635.8,74.7h-530.4l-55.5-55.5l-55.5-55.5v-432.8v-432.8H4101.3H1899.1v432.8v432.8l-55.5,55.5l-55.5,55.5h-540H708L652.5,3987.9z M3961.5,2367.9c51.7-36.4,74.7-143.6,46-199.2c-53.6-99.6-49.8-99.6-1238.9-93.8l-1103,5.7l-47.9,55.5c-38.3,46-46,68.9-36.4,124.5c23,143.6-40.2,136,1216,136C3773.8,2396.6,3925.1,2392.7,3961.5,2367.9z M6581.1,1372.1c70.9-68.9,65.1-164.7-11.5-227.9l-59.4-49.8H4097.4H1684.6l-55.5,55.5c-30.6,30.6-55.5,74.7-55.5,97.7c0,49.8,47.9,147.4,80.4,158.9c13.4,5.8,1118.3,11.5,2453,11.5l2428.1,1.9L6581.1,1372.1z M4130,395.5c65.1-63.2,65.1-166.6,0-229.8l-46-47.9H2885.3H1684.6l-55.5,55.5c-32.5,34.5-55.5,76.6-55.5,107.2s23,72.8,55.5,107.2l55.5,55.5h1200.7H4084L4130,395.5z M3969.1-2542c61.3-49.8,63.2-176.2,1.9-235.5l-44.1-44H2797.2H1665.5l-46,53.6c-59.4,70.8-59.4,155.1,1.9,214.5l46,47.9h1127.9C3875.3-2505.6,3927-2507.5,3969.1-2542z"/><path d="M6950.6-562c-810-126.4-1486-735.3-1711.9-1543.4c-67-241.3-86.2-687.5-38.3-942.1c283.4-1501.3,2006.8-2221.3,3276.4-1367.3c160.9,107.3,432.8,377.2,543.8,538.1c570.6,827.2,495.9,1928.3-180,2650.2C8342.8-694.1,7657.2-452.8,6950.6-562z M7678.3-906.6c607-145.5,1104.9-593.6,1304-1173.8c141.7-417.5,118.7-923-63.2-1315.5c-331.3-718.1-1093.4-1147-1855.5-1045.5C6290-4338.2,5683-3771.3,5527.9-3005.4c-46,218.3-30.6,620.4,28.7,825.3c197.2,691.3,764.1,1187.2,1489.8,1302.1C7190-854.9,7527.1-870.2,7678.3-906.6z"/><path d="M7232.1-1527.1c-101.5-42.1-103.4-59.4-109.2-530.4l-5.7-438.5l-440.4-5.7c-419.4-3.8-440.4-5.7-482.6-46c-63.2-59.4-59.4-166.6,5.7-227.9c47.9-46,53.6-46,488.3-51.7l438.5-5.7v-436.6c0-409.8,1.9-436.6,38.3-476.8c51.7-55.5,120.6-70.9,183.8-38.3c95.7,44.1,103.4,84.3,103.4,536.2v415.5l442.3,5.7l442.4,5.7l47.9,55.5c38.3,45.9,46,68.9,36.4,124.5c-21.1,132.1-38.3,135.9-530.4,135.9h-436.6l-5.8,450c-5.7,419.4-7.6,451.9-44,486.4C7358.5-1523.2,7283.8-1506,7232.1-1527.1z"/></g></g>
</svg>