<svg xmlns="http://www.w3.org/2000/svg" width="60.687" height="60.681" viewBox="0 0 60.687 60.681">
  <g id="Group_6" data-name="Group 6" transform="translate(-282.549 -1750.607)">
    <g id="L4WIzi_2_" transform="translate(292.114 1763.376)">
      <g id="Group_28303" transform="translate(0 0)">
        <path id="Path_17649" d="M393.711,228.951v.31a1.051,1.051,0,0,1-1.006.7.793.793,0,0,0-.418.139,1.935,1.935,0,0,1-1.331.356,1.9,1.9,0,0,1-.65-.217c-.232-.124-.4-.015-.356.232A11.256,11.256,0,0,1,389.8,234a.831.831,0,0,0,.093.542,1.768,1.768,0,0,1,.294,1.563,3.029,3.029,0,0,0,.634,2.445c.232.325.449.65.65.99a1.932,1.932,0,0,1,.155,1.408,1.032,1.032,0,0,1-.588.5c-.093,0-.124-.062-.186-.124-.139-.139-.217-.124-.279.062a.534.534,0,0,1-.573.48c-.5.015-.588-.046-.7-.542a5.742,5.742,0,0,1-.077-1.037,8.9,8.9,0,0,0-.371-2.383,20.511,20.511,0,0,1-.588-2.12,1.349,1.349,0,0,0-.217-.48,3.739,3.739,0,0,1-.418-.774,1.1,1.1,0,0,0-.2-.34,13.024,13.024,0,0,1-1.733-2.553,5.174,5.174,0,0,1-.433-1.872c0-.139-.015-.294-.015-.449-.093.046-.093.139-.124.2a5.73,5.73,0,0,0-.139,1.625,4.377,4.377,0,0,0,.046.634.73.73,0,0,1-.186.5,1.361,1.361,0,0,1-.588.433,6.093,6.093,0,0,0-1.207.758l-.65.48a.6.6,0,0,0-.17.8c.015.015.031.046.046.062.093.139.217.232.31.371a1.473,1.473,0,0,1,.34.7.637.637,0,0,0,.619.588,1.933,1.933,0,0,1,1.486.959.791.791,0,0,1-.015.913,1.391,1.391,0,0,1-1.223.774,2.687,2.687,0,0,1-1.78-.712,3.047,3.047,0,0,1-.789-1.13,1.372,1.372,0,0,0-.975-.928.489.489,0,0,1-.356-.294c-.2-.542-.542-1.006-.727-1.547-.077-.2-.155-.418-.217-.634a.767.767,0,0,0-.573-.588,7.184,7.184,0,0,0-1.408-.2,15.965,15.965,0,0,1-5.153-1.284,5.953,5.953,0,0,1-2.956-2.755,13.693,13.693,0,0,0-2.244-3,14.829,14.829,0,0,0-2.724-2.383l-.294-.186a1.083,1.083,0,0,0-.7-.155c-1.068.124-2.12.263-3.188.34-.186.015-.34,0-.511.015a.975.975,0,0,1-.9-.418,2.4,2.4,0,0,1-.557-1.424c-.015-.309-.062-.619-.077-.928a1.931,1.931,0,0,1,.356-1.192,6.453,6.453,0,0,0,.867-1.687c.124-.294.077-.34-.232-.34a14.1,14.1,0,0,1-4.023-.542,4.673,4.673,0,0,1-1.919-1.006,2.084,2.084,0,0,1-.511-.712c-.046-.077-.093-.186,0-.263.077-.077.186-.015.263.015a6.9,6.9,0,0,0,2.259.789,8.785,8.785,0,0,0,4.008-.279,9.725,9.725,0,0,0,1.068-.371.468.468,0,0,0,.263-.279,1.186,1.186,0,0,1,.634-.727,3.643,3.643,0,0,1,1.749-.418.48.48,0,0,0,.5-.232,2.2,2.2,0,0,1,1.811-1.114,1.948,1.948,0,0,1,1.176.232.262.262,0,0,0,.217.015,10.629,10.629,0,0,0,2.321-1.1,1.917,1.917,0,0,0,.34-.279.262.262,0,0,0,0-.356h0a3.082,3.082,0,0,0-.371-.294c-.557-.356-1.13-.65-1.687-.975-.418-.263-.82-.542-1.223-.82-.263-.186-.263-.356-.046-.557h.139l.124.062a18.4,18.4,0,0,0,4.3,1.486,2.721,2.721,0,0,1,1.315.619,1.024,1.024,0,0,1,.17,1.424v.015a7.067,7.067,0,0,1-1.408,1.393,10.268,10.268,0,0,1-1.223.789c-.062.046-.139.077-.093.186.015.077.093.093.186.077a.341.341,0,0,0,.124-.015,9.481,9.481,0,0,1,1.331-.046.168.168,0,0,1,.139.062c-.093.062-.186.139-.279.2a1.48,1.48,0,0,0-.4.356.349.349,0,0,0-.046.418.355.355,0,0,0,.371.155c.139-.015.263-.062.371-.077.186-.046.217,0,.217.186a.429.429,0,0,1-.015.139.436.436,0,0,0,.263.557.55.55,0,0,0,.155.031c.588.077,1.176.155,1.764.279a2.391,2.391,0,0,1,1.424.727.789.789,0,0,0,.433.263,14.655,14.655,0,0,1,2.275.65,5.074,5.074,0,0,1,2.956,2.724,23.607,23.607,0,0,1,.851,2.275,6.341,6.341,0,0,0,.31.913c.015.046.046.093.093.077.062-.015.046-.077.046-.124a2.316,2.316,0,0,0-.062-.65,23.88,23.88,0,0,0-.619-2.569c-.139-.48.155-.774.634-.681.062.015.124.015.155.046.48.155.975.309,1.455.48a18.255,18.255,0,0,1,4.132,1.919,2.324,2.324,0,0,1,1.114,1.64,1.172,1.172,0,0,0,.232.619c.155.2.31.418.449.619.077.124.155.248.217.371a8.279,8.279,0,0,1,.511,1.733,3.084,3.084,0,0,0,.4,1.223,1.416,1.416,0,0,0,1.872.712,1.683,1.683,0,0,0,.17-.093.437.437,0,0,0,.217-.279.81.81,0,0,1,.356-.542q.325-.209.7-.418c.062-.046.155-.046.155.046A1.985,1.985,0,0,0,393.711,228.951Z" transform="translate(-352.154 -208.4)" fill="#666"/>
        <path id="Path_17651" d="M493.094,376.088a1.447,1.447,0,0,1-.232.093c-.139.077-.279.155-.433-.015a.145.145,0,0,0-.2-.015.143.143,0,0,0-.046.139.358.358,0,0,1-.279.4h-.48c-.619-.077-.7-.557-.7-1.006a3.866,3.866,0,0,0-.4-1.486c-.124-.263-.263-.511-.4-.758a3.629,3.629,0,0,1-.356-.789,1.894,1.894,0,0,0-.712-.913,1.589,1.589,0,0,1-.65-.774,2.44,2.44,0,0,0-1.424-1.346,11.24,11.24,0,0,1-2.027-.9,6.093,6.093,0,0,1-2.043-2.027c-.124-.186-.232-.34-.356-.5-.062-.077-.093-.155-.155-.232.015-.062.062-.046.077-.015a21.309,21.309,0,0,0,3.528.851c.65.124,1.284.217,1.95.279a.824.824,0,0,1,.635.433,12.643,12.643,0,0,0,1.176,1.826,2.045,2.045,0,0,1,.542,1.114,2.278,2.278,0,0,0,.557,1.145,7.063,7.063,0,0,0,1.13,1.223,4.293,4.293,0,0,1,.959,1.207c.232.48.48.959.681,1.455A.474.474,0,0,1,493.094,376.088Z" transform="translate(-462.076 -341.548)" fill="#666"/>
      </g>
    </g>
    <g id="_2959747_employment_business_linkedin_work_icon" data-name="2959747_employment_business_linkedin_work_icon" transform="translate(282.549 1750.607)">
      <path id="Path_8425" data-name="Path 8425" d="M69.881,17.944a.856.856,0,0,1,.856.856V69.888a.856.856,0,0,1-.856.856H18.8a.856.856,0,0,1-.856-.856V18.8a.856.856,0,0,1,.856-.856H69.888m0-3.944H18.8A4.8,4.8,0,0,0,14,18.8V69.888a4.8,4.8,0,0,0,4.8,4.794H69.888a4.8,4.8,0,0,0,4.8-4.8V18.8A4.8,4.8,0,0,0,69.881,14Z" transform="translate(-14 -14)" fill="#666"/>
    </g>
  </g>
</svg>
