<svg xmlns="http://www.w3.org/2000/svg" width="60.687" height="60.681" viewBox="0 0 60.687 60.681">
  <g id="Group_7" data-name="Group 7" transform="translate(-204.458 -1750)">
    <path id="_8546741_hubspot_icon" data-name="8546741_hubspot_icon" d="M43.663,16.13a9.913,9.913,0,0,0-1.128,13.157l-3.773,3.8a3.114,3.114,0,0,0-1.067-.191,3.078,3.078,0,1,0,3.08,3.08,2.883,2.883,0,0,0-.145-.922l3.811-3.827a9.923,9.923,0,1,0,7.554-17.685v-4.7a3.482,3.482,0,0,0,2.15-3.27,3.572,3.572,0,1,0-7.143,0,3.482,3.482,0,0,0,2.15,3.27v4.665A9.866,9.866,0,0,0,45.9,14.545c-2.1-1.593-8.957-6.533-12.875-9.513a3.986,3.986,0,0,0,.152-1.052,4.035,4.035,0,1,0-1.951,3.407ZM50.485,28.6a5.26,5.26,0,1,1,5.26-5.26A5.261,5.261,0,0,1,50.485,28.6Z" transform="translate(190.184 1761.433)" fill="#666"/>
    <g id="_2959747_employment_business_linkedin_work_icon" data-name="2959747_employment_business_linkedin_work_icon" transform="translate(204.458 1750)">
      <path id="Path_8425" data-name="Path 8425" d="M69.881,17.944a.856.856,0,0,1,.856.856V69.888a.856.856,0,0,1-.856.856H18.8a.856.856,0,0,1-.856-.856V18.8a.856.856,0,0,1,.856-.856H69.888m0-3.944H18.8A4.8,4.8,0,0,0,14,18.8V69.888a4.8,4.8,0,0,0,4.8,4.794H69.888a4.8,4.8,0,0,0,4.8-4.8V18.8A4.8,4.8,0,0,0,69.881,14Z" transform="translate(-14 -14)" fill="#666"/>
    </g>
  </g>
</svg>
