<svg xmlns="http://www.w3.org/2000/svg" width="60.687" height="60.681" viewBox="0 0 60.687 60.681">
  <g id="Group_5" data-name="Group 5" transform="translate(-357.794 -1750)">
    <g id="netsuite" transform="translate(370.726 1760.567)">
      <path id="Path_8427" data-name="Path 8427" d="M0,.2H39.548V39.748H0Z" transform="translate(0 -0.2)" fill="none"/>
      <path id="Path_8428" data-name="Path 8428" d="M20.1,28.187h6.249V43.03H29.46v5.8H20.1ZM49.023,41.844H42.774V27H39.663V21.2h9.36Z" transform="translate(-14.801 -15.663)" fill="#666"/>
      <path id="Path_8429" data-name="Path 8429" d="M14.6,15.8H34.348V32.753l-7.593-9.782H14.6ZM46.4,46.3H26.649V29.352l7.593,9.782H46.4" transform="translate(-10.751 -11.687)" fill="#666"/>
    </g>
    <g id="_2959747_employment_business_linkedin_work_icon" data-name="2959747_employment_business_linkedin_work_icon" transform="translate(357.794 1750)">
      <path id="Path_8425" data-name="Path 8425" d="M69.881,17.944a.856.856,0,0,1,.856.856V69.888a.856.856,0,0,1-.856.856H18.8a.856.856,0,0,1-.856-.856V18.8a.856.856,0,0,1,.856-.856H69.888m0-3.944H18.8A4.8,4.8,0,0,0,14,18.8V69.888a4.8,4.8,0,0,0,4.8,4.794H69.888a4.8,4.8,0,0,0,4.8-4.8V18.8A4.8,4.8,0,0,0,69.881,14Z" transform="translate(-14 -14)" fill="#666"/>
    </g>
  </g>
</svg>
